<svg xmlns="http://www.w3.org/2000/svg" xmlns:xlink="http://www.w3.org/1999/xlink" width="298.608" height="131" viewBox="0 0 298.608 131"><defs><style>.a{fill:url(#a);}.b{fill:url(#b);}.c{fill:url(#f);}.d{fill:url(#h);}.e{fill:url(#r);}</style><linearGradient id="a" x1="0.5" x2="0.5" y2="1" gradientUnits="objectBoundingBox"><stop offset="0" stop-color="#ee3346"/><stop offset="1" stop-color="#620d0e"/></linearGradient><linearGradient id="b" x1="0.5" y1="0" x2="0.5" xlink:href="#a"/><linearGradient id="f" x1="0.5" y1="0.001" x2="0.5" y2="0.999" xlink:href="#a"/><linearGradient id="h" x1="0.5" y1="0" x2="0.5" xlink:href="#a"/><linearGradient id="r" x1="0.5" y1="0" x2="0.5" xlink:href="#a"/></defs><path class="a" d="M132.391,125.03a1.478,1.478,0,0,1-1.481-1.475l.014-122.09a1.481,1.481,0,0,1,2.963,0l-.014,122.09a1.478,1.478,0,0,1-1.481,1.475Z" transform="translate(-71.367 0.015)"/><circle class="b" cx="1.489" cy="1.489" r="1.489" transform="translate(59.542 128.023)"/><path class="b" d="M146.977,125.891V27.626a1.489,1.489,0,1,0-2.977,0v98.265a1.489,1.489,0,1,0,2.977,0Z" transform="translate(-78.503 -14.242)"/><path class="b" d="M107.7,140.189V53.852a1.489,1.489,0,0,0-2.977,0v86.336a1.489,1.489,0,0,0,2.977,0Z" transform="translate(-57.093 -28.54)"/><path class="b" d="M120.8,108.028v-80.4a1.489,1.489,0,1,0-2.977,0v80.4a1.489,1.489,0,1,0,2.977,0Z" transform="translate(-64.23 -14.242)"/><path class="c" d="M160.068,71.712V53.821a1.489,1.489,0,1,0-2.977,0V71.712a1.489,1.489,0,1,0,2.977,0Z" transform="translate(-85.64 -28.523)"/><circle class="b" cx="1.489" cy="1.489" r="1.489" transform="translate(71.451 47.641)"/><path class="d" d="M160.068,175.869V119.276a1.489,1.489,0,1,0-2.977,0v56.593a1.489,1.489,0,1,0,2.977,0Z" transform="translate(-85.64 -64.206)"/><path class="b" d="M173.159,96.133v-52.1a1.489,1.489,0,1,0-2.977,0v52.1a1.489,1.489,0,1,0,2.977,0Z" transform="translate(-92.777 -23.187)"/><path class="b" d="M94.613,136.325V44.034a1.489,1.489,0,1,0-2.977,0v92.291a1.489,1.489,0,0,0,2.977,0Z" transform="translate(-49.957 -23.187)"/><path class="b" d="M173.159,205.907V171.67a1.489,1.489,0,1,0-2.977,0v34.237a1.489,1.489,0,1,0,2.977,0Z" transform="translate(-92.777 -92.77)"/><circle class="b" cx="1.489" cy="1.489" r="1.489" transform="translate(83.359 14.893)"/><circle class="b" cx="1.489" cy="1.489" r="1.489" transform="translate(35.725 14.893)"/><circle class="b" cx="1.489" cy="1.489" r="1.489" transform="translate(35.725 83.366)"/><path class="b" d="M186.25,175.281V112.761a1.489,1.489,0,1,0-2.977,0v62.519a1.489,1.489,0,1,0,2.977,0Z" transform="translate(-99.913 -60.655)"/><path class="b" d="M81.523,139.555V112.761a1.489,1.489,0,1,0-2.977,0v26.794a1.489,1.489,0,1,0,2.977,0Z" transform="translate(-42.82 -60.655)"/><path class="b" d="M81.523,221.669V197.852a1.489,1.489,0,1,0-2.977,0v23.817a1.489,1.489,0,0,0,2.977,0Z" transform="translate(-42.82 -107.043)"/><path class="e" d="M199.327,165.471l.014-62.519a1.482,1.482,0,0,0-2.963,0l-.014,62.519a1.482,1.482,0,0,0,2.963,0Z" transform="translate(-107.05 -55.311)"/><path class="e" d="M68.418,171.425l.014-68.474a1.482,1.482,0,0,0-2.963,0l-.014,68.474a1.482,1.482,0,1,0,2.963,0Z" transform="translate(-35.683 -55.311)"/><circle class="b" cx="1.489" cy="1.489" r="1.489" transform="translate(89.313 114.626)"/><path class="b" d="M212.432,146.417V89.852a1.489,1.489,0,1,0-2.977,0v56.565a1.489,1.489,0,0,0,2.977,0Z" transform="translate(-114.187 -48.166)"/><path class="b" d="M55.341,146.417V89.852a1.489,1.489,0,1,0-2.977,0v56.565a1.489,1.489,0,1,0,2.977,0Z" transform="translate(-28.547 -48.166)"/><path class="b" d="M225.523,154.441v-41.68a1.489,1.489,0,1,0-2.977,0v41.68a1.489,1.489,0,0,0,2.977,0Z" transform="translate(-121.324 -60.655)"/><path class="b" d="M42.25,133.6v-20.84a1.489,1.489,0,1,0-2.977,0V133.6a1.489,1.489,0,0,0,2.977,0Z" transform="translate(-21.41 -60.655)"/><path class="b" d="M42.25,186.556V171.67a1.489,1.489,0,1,0-2.977,0v14.886a1.489,1.489,0,1,0,2.977,0Z" transform="translate(-21.41 -92.77)"/><path class="b" d="M238.614,116.931v-7.443a1.489,1.489,0,0,0-2.977,0v7.443a1.489,1.489,0,0,0,2.977,0Z" transform="translate(-128.46 -58.871)"/><path class="b" d="M238.614,162.748V138.921a1.489,1.489,0,1,0-2.977,0v23.827a1.489,1.489,0,0,0,2.977,0Z" transform="translate(-128.46 -74.916)"/><path class="b" d="M29.159,146.7V109.489a1.489,1.489,0,1,0-2.977,0V146.7a1.489,1.489,0,0,0,2.977,0Z" transform="translate(-14.273 -58.871)"/><path class="b" d="M251.7,140.453V106.216a1.489,1.489,0,1,0-2.977,0v34.237a1.489,1.489,0,1,0,2.977,0Z" transform="translate(-135.597 -57.087)"/><path class="b" d="M16.068,140.453V106.216a1.489,1.489,0,1,0-2.977,0v34.237a1.489,1.489,0,1,0,2.977,0Z" transform="translate(-7.137 -57.086)"/><circle class="b" cx="1.489" cy="1.489" r="1.489" transform="translate(119.085 46.152)"/><circle class="b" cx="1.489" cy="1.489" r="1.489" transform="translate(0 46.152)"/><path class="b" d="M264.8,166.318v-4.466a1.489,1.489,0,0,0-2.977,0v4.466a1.489,1.489,0,0,0,2.977,0Z" transform="translate(-142.734 -87.417)"/><path class="b" d="M2.977,166.318v-4.466a1.489,1.489,0,1,0-2.977,0v4.466a1.489,1.489,0,1,0,2.977,0Z" transform="translate(0 -87.417)"/><path class="b" d="M120.8,229.4V217.489a1.489,1.489,0,1,0-2.977,0V229.4a1.489,1.489,0,0,0,2.977,0Z" transform="translate(-64.23 -117.748)"/><path d="M331.1,51.451a3.929,3.929,0,0,1-.571.689,5.207,5.207,0,0,1-.941.731,5.831,5.831,0,0,1-1.277.58,5.139,5.139,0,0,1-1.6.235,5.727,5.727,0,0,1-2.269-.437,5.2,5.2,0,0,1-1.764-1.218,5.571,5.571,0,0,1-1.151-1.848,6.712,6.712,0,0,1,0-4.629,5.851,5.851,0,0,1,1.151-1.882A5.318,5.318,0,0,1,324.45,42.4a5.557,5.557,0,0,1,2.294-.462,5.3,5.3,0,0,1,2.831.765,4.778,4.778,0,0,1,.907.714,5.243,5.243,0,0,1,.613.739l-1.143.975a6.766,6.766,0,0,0-.479-.6,3.305,3.305,0,0,0-.664-.563,3.883,3.883,0,0,0-.891-.42,3.916,3.916,0,0,0-4.058,1.143,4.222,4.222,0,0,0-.781,1.411,5.385,5.385,0,0,0-.269,1.714,5.159,5.159,0,0,0,.277,1.706,4.247,4.247,0,0,0,.781,1.386,3.582,3.582,0,0,0,1.227.924,3.78,3.78,0,0,0,1.613.336,3.914,3.914,0,0,0,1.3-.193,3.75,3.75,0,0,0,.924-.462,3.6,3.6,0,0,0,.622-.546q.243-.277.412-.462Z" transform="translate(-175.06 -22.857)"/><path d="M351.909,56.578a2.606,2.606,0,0,1-1.151.874,3.927,3.927,0,0,1-1.47.286,3.776,3.776,0,0,1-.966-.126,2.524,2.524,0,0,1-.874-.42,2.208,2.208,0,0,1-.639-.756,2.408,2.408,0,0,1-.244-1.134,2.523,2.523,0,0,1,.882-2.016,3.8,3.8,0,0,1,2.546-.756q.268,0,.571.017l.571.034q.269.017.471.034c.135.011.23.023.286.034v-.286a1.432,1.432,0,0,0-.529-1.252,2.426,2.426,0,0,0-1.437-.378,3.386,3.386,0,0,0-1.411.244,5.585,5.585,0,0,0-.874.5l-.706-1.025a3.66,3.66,0,0,1,.487-.336,4.187,4.187,0,0,1,.672-.311,5.488,5.488,0,0,1,.874-.235,6.134,6.134,0,0,1,1.126-.092,3.57,3.57,0,0,1,2.378.731,2.566,2.566,0,0,1,.865,2.075V56.83q0,.4.017.689h-1.411Zm-.017-2.756c-.045-.011-.132-.025-.261-.042s-.277-.03-.445-.042l-.538-.034q-.286-.017-.555-.017a2.938,2.938,0,0,0-1.033.151,1.758,1.758,0,0,0-.622.378,1.2,1.2,0,0,0-.311.5,1.82,1.82,0,0,0-.084.529,1.132,1.132,0,0,0,.437.967,1.979,1.979,0,0,0,1.21.327,2.311,2.311,0,0,0,.832-.151,2.455,2.455,0,0,0,.7-.4,2.041,2.041,0,0,0,.487-.588,1.414,1.414,0,0,0,.185-.689Z" transform="translate(-188.934 -26.959)"/><path d="M366.9,57.576V50.569q0-.387-.017-.807h1.445l.051,1.176q.151-.2.37-.445a2.54,2.54,0,0,1,.538-.445,3.171,3.171,0,0,1,.748-.336,3.215,3.215,0,0,1,.966-.135,2.781,2.781,0,0,1,2.268.891,3.675,3.675,0,0,1,.739,2.42v4.688H372.5v-4.57a2.319,2.319,0,0,0-.47-1.6,1.713,1.713,0,0,0-1.328-.512,2.054,2.054,0,0,0-1.092.269,2.077,2.077,0,0,0-.7.7,3.129,3.129,0,0,0-.378.975,5.3,5.3,0,0,0-.117,1.117v3.629Z" transform="translate(-200.013 -27.016)"/><path d="M392.287,56.578a2.607,2.607,0,0,1-1.151.874,3.926,3.926,0,0,1-1.47.285,3.778,3.778,0,0,1-.966-.126,2.525,2.525,0,0,1-.874-.42,2.207,2.207,0,0,1-.639-.756,2.408,2.408,0,0,1-.244-1.134,2.523,2.523,0,0,1,.883-2.016,3.8,3.8,0,0,1,2.546-.756q.269,0,.571.017l.571.034q.269.017.471.034c.134.011.229.023.286.034v-.286a1.432,1.432,0,0,0-.529-1.252,2.426,2.426,0,0,0-1.437-.378,3.386,3.386,0,0,0-1.411.244,5.583,5.583,0,0,0-.874.5l-.706-1.025a3.684,3.684,0,0,1,.487-.336,4.191,4.191,0,0,1,.672-.311,5.493,5.493,0,0,1,.874-.235,6.135,6.135,0,0,1,1.126-.092,3.57,3.57,0,0,1,2.378.731,2.567,2.567,0,0,1,.865,2.075V56.83q0,.4.017.689h-1.411Zm-.017-2.756c-.045-.011-.132-.025-.261-.042s-.277-.03-.445-.042l-.538-.034q-.286-.017-.555-.017a2.938,2.938,0,0,0-1.033.151,1.758,1.758,0,0,0-.622.378,1.2,1.2,0,0,0-.311.5,1.816,1.816,0,0,0-.084.529,1.132,1.132,0,0,0,.437.967,1.979,1.979,0,0,0,1.21.327,2.311,2.311,0,0,0,.832-.151,2.455,2.455,0,0,0,.7-.4,2.043,2.043,0,0,0,.487-.588,1.416,1.416,0,0,0,.185-.689Z" transform="translate(-210.946 -26.959)"/><path d="M412.465,52.748q-.084.1-.277.311a2.53,2.53,0,0,1-.513.412,3.734,3.734,0,0,1-.748.353,3,3,0,0,1-1,.151,3.335,3.335,0,0,1-1.378-.286,3.281,3.281,0,0,1-1.109-.807,3.66,3.66,0,0,1-.731-1.269,5.049,5.049,0,0,1-.26-1.672,4.337,4.337,0,0,1,.387-1.907,3.994,3.994,0,0,1,.983-1.311,3.888,3.888,0,0,1,1.294-.748,4.133,4.133,0,0,1,1.319-.235,3.418,3.418,0,0,1,1.311.2q.47.2.722.3V42.533h1.512V52.95q0,.37.017.79h-1.479Zm0-5.091a3.9,3.9,0,0,0-.622-.361,2.957,2.957,0,0,0-1.294-.227,2.52,2.52,0,0,0-1.017.2,2.412,2.412,0,0,0-.807.571,2.6,2.6,0,0,0-.538.907,3.559,3.559,0,0,0-.193,1.21,3.989,3.989,0,0,0,.134,1.05,2.52,2.52,0,0,0,.412.865,1.931,1.931,0,0,0,.706.58,2.288,2.288,0,0,0,1.017.21,2.161,2.161,0,0,0,1.008-.219,2.081,2.081,0,0,0,.681-.546,2.256,2.256,0,0,0,.387-.722,2.42,2.42,0,0,0,.126-.731Z" transform="translate(-221.581 -23.18)"/><path d="M428.469,43.2h1.7v1.7h-1.7Zm.1,3.092h1.512V54.1H428.57Z" transform="translate(-233.585 -23.543)"/><path d="M442.011,56.578a2.607,2.607,0,0,1-1.151.874,3.927,3.927,0,0,1-1.47.285,3.776,3.776,0,0,1-.966-.126,2.526,2.526,0,0,1-.874-.42,2.207,2.207,0,0,1-.638-.756,2.406,2.406,0,0,1-.244-1.134,2.522,2.522,0,0,1,.882-2.016,3.805,3.805,0,0,1,2.546-.756q.268,0,.571.017l.571.034q.269.017.471.034c.134.011.229.023.286.034v-.286a1.432,1.432,0,0,0-.53-1.251,2.427,2.427,0,0,0-1.437-.378,3.385,3.385,0,0,0-1.411.244,5.579,5.579,0,0,0-.874.5l-.706-1.025a3.666,3.666,0,0,1,.487-.336,4.193,4.193,0,0,1,.672-.311,5.49,5.49,0,0,1,.874-.235,6.135,6.135,0,0,1,1.126-.092,3.57,3.57,0,0,1,2.378.731,2.566,2.566,0,0,1,.865,2.075v4.554q0,.4.017.689h-1.411Zm-.017-2.756c-.045-.011-.132-.025-.26-.042s-.277-.03-.445-.042l-.538-.034q-.286-.017-.555-.017a2.937,2.937,0,0,0-1.033.151,1.76,1.76,0,0,0-.622.378,1.2,1.2,0,0,0-.311.5,1.82,1.82,0,0,0-.084.529,1.132,1.132,0,0,0,.437.967,1.979,1.979,0,0,0,1.21.327,2.311,2.311,0,0,0,.832-.151,2.455,2.455,0,0,0,.7-.4,2.045,2.045,0,0,0,.487-.588,1.415,1.415,0,0,0,.185-.689Z" transform="translate(-238.054 -26.96)"/><path d="M457,57.576V50.569q0-.387-.017-.807h1.445l.05,1.176q.151-.2.37-.445a2.539,2.539,0,0,1,.538-.445,3.169,3.169,0,0,1,.748-.336,3.215,3.215,0,0,1,.966-.135,2.781,2.781,0,0,1,2.268.891,3.675,3.675,0,0,1,.739,2.42v4.688H462.6v-4.57a2.319,2.319,0,0,0-.47-1.6,1.713,1.713,0,0,0-1.327-.512,2.054,2.054,0,0,0-1.092.269,2.078,2.078,0,0,0-.7.7,3.128,3.128,0,0,0-.378.975,5.292,5.292,0,0,0-.117,1.117v3.629Z" transform="translate(-249.133 -27.016)"/><path d="M486.173,42.53h3.579a4.934,4.934,0,0,1,1.815.294,3.518,3.518,0,0,1,1.2.756,2.817,2.817,0,0,1,.672,1.05,3.694,3.694,0,0,1-.294,3.091,3.008,3.008,0,0,1-1.563,1.227l2.622,4.789H492.39l-2.4-4.587h-2.252v4.587h-1.563Zm3.713,5.259a2.178,2.178,0,0,0,1.588-.521A1.868,1.868,0,0,0,492,45.874a1.831,1.831,0,0,0-.571-1.437,2.28,2.28,0,0,0-1.579-.513h-2.117V47.79Z" transform="translate(-265.043 -23.178)"/><path d="M514.3,56.382a4.868,4.868,0,0,1-.4.387,3.418,3.418,0,0,1-.7.454,5.352,5.352,0,0,1-1.008.378,4.967,4.967,0,0,1-1.319.16,4.434,4.434,0,0,1-1.663-.3,3.675,3.675,0,0,1-1.294-.857,3.84,3.84,0,0,1-.832-1.328,4.781,4.781,0,0,1-.294-1.714,4.448,4.448,0,0,1,.286-1.6,3.807,3.807,0,0,1,3.612-2.479,3.622,3.622,0,0,1,1.731.387,3.45,3.45,0,0,1,1.185,1.025,4.4,4.4,0,0,1,.681,1.462,6.676,6.676,0,0,1,.218,1.714h-6.167a2.356,2.356,0,0,0,.227.958,2.417,2.417,0,0,0,.563.756,2.716,2.716,0,0,0,.806.5,2.509,2.509,0,0,0,.958.185,3.481,3.481,0,0,0,1.63-.337,3.344,3.344,0,0,0,.924-.655Zm-1.361-3.445a2.533,2.533,0,0,0-.639-1.546,2.051,2.051,0,0,0-1.613-.639,2.417,2.417,0,0,0-.966.185,2.32,2.32,0,0,0-.731.487,2.192,2.192,0,0,0-.47.7,2.3,2.3,0,0,0-.185.815Z" transform="translate(-276.281 -26.965)"/><path d="M528.363,55.538a3.179,3.179,0,0,0,1.008.672,3.425,3.425,0,0,0,1.361.252,2.89,2.89,0,0,0,1.26-.243.8.8,0,0,0,.5-.765.924.924,0,0,0-.109-.462.969.969,0,0,0-.37-.344,3.184,3.184,0,0,0-.689-.277q-.429-.126-1.067-.277a6.619,6.619,0,0,1-.9-.269,2.981,2.981,0,0,1-.8-.446,2.191,2.191,0,0,1-.572-.672,1.933,1.933,0,0,1-.218-.949,1.883,1.883,0,0,1,.26-1,2.311,2.311,0,0,1,.7-.723,3.353,3.353,0,0,1,.983-.445,4.22,4.22,0,0,1,1.134-.151,4.992,4.992,0,0,1,1.706.261,3.93,3.93,0,0,1,1.252.731l-.823,1.042a3.017,3.017,0,0,0-.882-.537,3.221,3.221,0,0,0-1.235-.219,2.449,2.449,0,0,0-1.159.235.81.81,0,0,0-.437.773.8.8,0,0,0,.58.747,9.637,9.637,0,0,0,1.521.462,9.418,9.418,0,0,1,1.033.311,3.157,3.157,0,0,1,.84.454,2.034,2.034,0,0,1,.571.68,2.091,2.091,0,0,1,.21.975,1.957,1.957,0,0,1-.269,1.033,2.361,2.361,0,0,1-.722.748,3.387,3.387,0,0,1-1.042.454,4.9,4.9,0,0,1-1.227.151,4.327,4.327,0,0,1-3.327-1.193Z" transform="translate(-287.54 -26.944)"/><path d="M553.382,56.382a4.852,4.852,0,0,1-.4.387,3.421,3.421,0,0,1-.7.454,5.356,5.356,0,0,1-1.008.378,4.968,4.968,0,0,1-1.319.16,4.435,4.435,0,0,1-1.664-.3A3.674,3.674,0,0,1,547,56.6a3.844,3.844,0,0,1-.832-1.328,4.781,4.781,0,0,1-.294-1.714,4.446,4.446,0,0,1,.286-1.6,3.807,3.807,0,0,1,3.612-2.479,3.622,3.622,0,0,1,1.731.387,3.452,3.452,0,0,1,1.185,1.025,4.406,4.406,0,0,1,.68,1.462,6.675,6.675,0,0,1,.218,1.714h-6.166a2.355,2.355,0,0,0,.227.958,2.414,2.414,0,0,0,.563.756,2.717,2.717,0,0,0,.807.5,2.509,2.509,0,0,0,.958.185,3.481,3.481,0,0,0,1.63-.337,3.346,3.346,0,0,0,.924-.655Zm-1.361-3.445a2.533,2.533,0,0,0-.639-1.546,2.051,2.051,0,0,0-1.613-.639,2.417,2.417,0,0,0-.966.185,2.319,2.319,0,0,0-.731.487,2.19,2.19,0,0,0-.47.7,2.3,2.3,0,0,0-.185.815Z" transform="translate(-297.588 -26.965)"/><path d="M571.791,56.578a2.609,2.609,0,0,1-1.151.874,3.926,3.926,0,0,1-1.47.285,3.775,3.775,0,0,1-.966-.126,2.526,2.526,0,0,1-.874-.42,2.2,2.2,0,0,1-.638-.756,2.4,2.4,0,0,1-.244-1.134,2.522,2.522,0,0,1,.882-2.016,3.806,3.806,0,0,1,2.546-.756q.269,0,.571.017l.571.034q.268.017.471.034c.134.011.229.023.285.034v-.286a1.432,1.432,0,0,0-.529-1.252,2.427,2.427,0,0,0-1.437-.378,3.386,3.386,0,0,0-1.412.244,5.58,5.58,0,0,0-.874.5l-.706-1.025a3.625,3.625,0,0,1,.487-.336,4.175,4.175,0,0,1,.672-.311,5.494,5.494,0,0,1,.874-.235,6.136,6.136,0,0,1,1.126-.092,3.571,3.571,0,0,1,2.378.731,2.567,2.567,0,0,1,.865,2.075V56.83q0,.4.017.689h-1.411Zm-.017-2.756c-.045-.011-.132-.025-.26-.042s-.278-.03-.445-.042l-.538-.034q-.285-.017-.555-.017a2.937,2.937,0,0,0-1.033.151,1.756,1.756,0,0,0-.622.378,1.2,1.2,0,0,0-.311.5,1.819,1.819,0,0,0-.084.529,1.132,1.132,0,0,0,.437.967,1.979,1.979,0,0,0,1.21.327,2.314,2.314,0,0,0,.832-.151,2.461,2.461,0,0,0,.7-.4,2.04,2.04,0,0,0,.487-.588,1.408,1.408,0,0,0,.185-.689Z" transform="translate(-308.805 -26.959)"/><path d="M586.785,57.667V50.61c0-.247-.006-.5-.017-.756h1.445l.051,1.26a4.034,4.034,0,0,1,.353-.445,2.622,2.622,0,0,1,.529-.445,3.31,3.31,0,0,1,.723-.345,3.216,3.216,0,0,1,1.411-.109,2.176,2.176,0,0,1,.4.1l-.336,1.411a2.233,2.233,0,0,0-2.386.58,2.5,2.5,0,0,0-.479.765,2.441,2.441,0,0,0-.177.924v4.117Z" transform="translate(-319.884 -27.107)"/><path d="M606.6,56.431a3.937,3.937,0,0,1-1.285.949,4.108,4.108,0,0,1-1.773.361,4.491,4.491,0,0,1-1.706-.311,3.629,3.629,0,0,1-2.108-2.168,4.73,4.73,0,0,1-.286-1.672,4.3,4.3,0,0,1,.3-1.613,3.986,3.986,0,0,1,2.142-2.21,4.423,4.423,0,0,1,3.4.025,3.94,3.94,0,0,1,1.294.958l-.991.958a2.566,2.566,0,0,0-.857-.689,2.643,2.643,0,0,0-1.193-.252,2.5,2.5,0,0,0-1.084.227,2.323,2.323,0,0,0-.807.622,2.868,2.868,0,0,0-.5.907,3.258,3.258,0,0,0-.176,1.067,3.2,3.2,0,0,0,.176,1.05,2.861,2.861,0,0,0,.5.907,2.393,2.393,0,0,0,1.891.866,2.834,2.834,0,0,0,1.235-.261,2.545,2.545,0,0,0,.9-.7Z" transform="translate(-326.791 -26.946)"/><path d="M619.351,42.533h1.5v4.554a5.52,5.52,0,0,1,.37-.437,2.682,2.682,0,0,1,.538-.437,3.2,3.2,0,0,1,.739-.336,3.132,3.132,0,0,1,.958-.135,2.781,2.781,0,0,1,2.268.891,3.672,3.672,0,0,1,.74,2.42V53.74h-1.513V49.17a2.317,2.317,0,0,0-.47-1.6,1.712,1.712,0,0,0-1.327-.512,2.054,2.054,0,0,0-1.093.269,2.079,2.079,0,0,0-.7.7,3.121,3.121,0,0,0-.378.975,5.278,5.278,0,0,0-.118,1.118V53.74h-1.512Z" transform="translate(-337.647 -23.18)"/><path d="M322.149,79.475h1.6v5.091l4.688-5.091h1.849l-4.167,4.57,4.671,6.637h-1.932l-3.831-5.494-1.277,1.378v4.117h-1.6Z" transform="translate(-175.624 -43.32)"/><path d="M344.812,94.519V87.512q0-.387-.017-.807h1.445l.05,1.176q.151-.2.37-.446a2.541,2.541,0,0,1,.538-.445,3.169,3.169,0,0,1,.748-.336,3.214,3.214,0,0,1,.966-.135,2.781,2.781,0,0,1,2.268.891,3.676,3.676,0,0,1,.739,2.42v4.688h-1.512v-4.57a2.32,2.32,0,0,0-.47-1.6,1.713,1.713,0,0,0-1.328-.512,2.054,2.054,0,0,0-1.092.269,2.078,2.078,0,0,0-.7.7,3.126,3.126,0,0,0-.378.975,5.29,5.29,0,0,0-.118,1.117v3.629Z" transform="translate(-187.97 -47.156)"/><path d="M369.173,94.683a4.144,4.144,0,0,1-1.663-.327,3.952,3.952,0,0,1-1.3-.9,4.25,4.25,0,0,1-.857-1.319,4.231,4.231,0,0,1,.857-4.528,3.951,3.951,0,0,1,1.3-.9,4.136,4.136,0,0,1,1.663-.328,4.094,4.094,0,0,1,1.646.328,4.048,4.048,0,0,1,1.311.9,4.2,4.2,0,0,1,0,5.847,4.049,4.049,0,0,1-1.311.9A4.1,4.1,0,0,1,369.173,94.683Zm0-1.31a2.409,2.409,0,0,0,1.092-.244,2.588,2.588,0,0,0,.823-.639,2.778,2.778,0,0,0,.513-.907,3.2,3.2,0,0,0,.176-1.05A3.16,3.16,0,0,0,371.6,89.5a2.8,2.8,0,0,0-.521-.916,2.66,2.66,0,0,0-.823-.647,2.357,2.357,0,0,0-1.084-.244,2.408,2.408,0,0,0-1.092.244,2.587,2.587,0,0,0-.823.638,2.783,2.783,0,0,0-.512.907,3.206,3.206,0,0,0-.176,1.05,3.127,3.127,0,0,0,.176,1.042,2.818,2.818,0,0,0,.521.907,2.657,2.657,0,0,0,.823.647,2.356,2.356,0,0,0,1.084.244Z" transform="translate(-199.006 -47.085)"/><path d="M385.469,86.938h1.663L388.88,92.9l1.882-5.965h1.294l1.882,6.015,1.714-6.015h1.563l-2.588,7.813h-1.5l-1.815-5.461-1.8,5.461h-1.411Z" transform="translate(-210.143 -47.388)"/><path d="M414.948,79.475h1.512V90.683h-1.512Z" transform="translate(-226.214 -43.32)"/><path d="M430.438,93.325a4.823,4.823,0,0,1-.4.387,3.4,3.4,0,0,1-.7.454,5.343,5.343,0,0,1-1.008.378,4.967,4.967,0,0,1-1.319.16,4.436,4.436,0,0,1-1.663-.3,3.677,3.677,0,0,1-1.294-.857,3.834,3.834,0,0,1-.832-1.327,4.781,4.781,0,0,1-.294-1.714,4.45,4.45,0,0,1,.286-1.6,3.831,3.831,0,0,1,.807-1.294,3.871,3.871,0,0,1,1.235-.866,3.811,3.811,0,0,1,1.571-.319,3.624,3.624,0,0,1,1.731.387,3.447,3.447,0,0,1,1.184,1.025,4.388,4.388,0,0,1,.681,1.462,6.671,6.671,0,0,1,.218,1.714h-6.167a2.354,2.354,0,0,0,.227.958,2.425,2.425,0,0,0,.563.756,2.718,2.718,0,0,0,.807.5,2.508,2.508,0,0,0,.958.185,3.481,3.481,0,0,0,1.63-.337,3.338,3.338,0,0,0,.924-.655Zm-1.361-3.445a2.532,2.532,0,0,0-.639-1.546,2.053,2.053,0,0,0-1.613-.639,2.419,2.419,0,0,0-.966.185,2.313,2.313,0,0,0-.731.487,2.185,2.185,0,0,0-.47.7,2.291,2.291,0,0,0-.185.815Z" transform="translate(-230.564 -47.105)"/><path d="M449.666,89.691q-.084.1-.277.311a2.533,2.533,0,0,1-.513.412,3.737,3.737,0,0,1-.748.353,3,3,0,0,1-1,.151,3.335,3.335,0,0,1-1.378-.286,3.28,3.28,0,0,1-1.109-.807,3.658,3.658,0,0,1-.731-1.268,5.051,5.051,0,0,1-.261-1.672,4.337,4.337,0,0,1,.387-1.907,3.993,3.993,0,0,1,.983-1.311,3.889,3.889,0,0,1,1.294-.748,4.134,4.134,0,0,1,1.319-.235,3.418,3.418,0,0,1,1.311.2q.47.2.722.3V79.475h1.512V89.893q0,.37.017.79h-1.479Zm0-5.091a3.9,3.9,0,0,0-.622-.361,2.958,2.958,0,0,0-1.294-.227,2.521,2.521,0,0,0-1.017.2,2.412,2.412,0,0,0-.806.571,2.6,2.6,0,0,0-.538.907,3.557,3.557,0,0,0-.193,1.21,3.983,3.983,0,0,0,.134,1.05,2.52,2.52,0,0,0,.412.865,1.93,1.93,0,0,0,.706.58,2.287,2.287,0,0,0,1.017.21,2.161,2.161,0,0,0,1.008-.219,2.081,2.081,0,0,0,.681-.546,2.258,2.258,0,0,0,.387-.722,2.422,2.422,0,0,0,.126-.731Z" transform="translate(-241.861 -43.32)"/><path d="M466.322,96.125a3.85,3.85,0,0,0,.949.462,4.257,4.257,0,0,0,1.369.193,2.138,2.138,0,0,0,1.68-.622,2.357,2.357,0,0,0,.554-1.63v-.958q-.118.1-.311.277a2.465,2.465,0,0,1-.487.336,3.911,3.911,0,0,1-.7.286,3.113,3.113,0,0,1-.924.126,3.719,3.719,0,0,1-1.521-.294,3.2,3.2,0,0,1-1.117-.807,3.454,3.454,0,0,1-.689-1.227,4.935,4.935,0,0,1-.235-1.554,4.3,4.3,0,0,1,.319-1.672,3.947,3.947,0,0,1,.9-1.327,4.056,4.056,0,0,1,1.386-.874,4.966,4.966,0,0,1,1.8-.311,8.911,8.911,0,0,1,1.781.168,7.948,7.948,0,0,1,1.327.37v7.46a3.45,3.45,0,0,1-.983,2.63,3.857,3.857,0,0,1-2.764.933,5.63,5.63,0,0,1-1.9-.26,4.36,4.36,0,0,1-1.143-.6Zm4.57-8.032c-.1-.034-.272-.081-.512-.143a4.717,4.717,0,0,0-1.084-.092,3.078,3.078,0,0,0-1.16.21,2.624,2.624,0,0,0-1.487,1.487,3.023,3.023,0,0,0-.21,1.143,3.88,3.88,0,0,0,.126,1.008,2.265,2.265,0,0,0,.4.823,1.939,1.939,0,0,0,.7.554,2.353,2.353,0,0,0,1.025.2,2.6,2.6,0,0,0,.974-.168,1.952,1.952,0,0,0,.689-.445,1.865,1.865,0,0,0,.4-.622,1.95,1.95,0,0,0,.134-.714Z" transform="translate(-253.443 -47.166)"/><path d="M493.536,93.325a4.949,4.949,0,0,1-.4.387,3.421,3.421,0,0,1-.7.454,5.35,5.35,0,0,1-1.009.378,4.965,4.965,0,0,1-1.318.16,4.435,4.435,0,0,1-1.664-.3,3.683,3.683,0,0,1-1.294-.857,3.842,3.842,0,0,1-.832-1.327,4.781,4.781,0,0,1-.294-1.714,4.459,4.459,0,0,1,.285-1.6,3.807,3.807,0,0,1,3.612-2.479,3.623,3.623,0,0,1,1.731.387,3.453,3.453,0,0,1,1.185,1.025,4.4,4.4,0,0,1,.68,1.462,6.671,6.671,0,0,1,.218,1.714h-6.167a2.36,2.36,0,0,0,.227.958,2.411,2.411,0,0,0,.563.756,2.707,2.707,0,0,0,.807.5,2.5,2.5,0,0,0,.957.185,3.481,3.481,0,0,0,1.63-.337,3.339,3.339,0,0,0,.924-.655Zm-1.361-3.445a2.535,2.535,0,0,0-.639-1.546,2.051,2.051,0,0,0-1.613-.639,2.417,2.417,0,0,0-.966.185,2.319,2.319,0,0,0-.731.487,2.193,2.193,0,0,0-.471.7,2.32,2.32,0,0,0-.185.815Z" transform="translate(-264.963 -47.105)"/><path d="M515.727,79.475h1.63l6.117,8.754V79.475h1.579V90.683H523.44l-6.133-8.771v8.771h-1.579Z" transform="translate(-281.155 -43.32)"/><path d="M548.913,93.325a4.888,4.888,0,0,1-.4.387,3.423,3.423,0,0,1-.7.454,5.35,5.35,0,0,1-1.008.378,4.967,4.967,0,0,1-1.319.16,4.434,4.434,0,0,1-1.663-.3,3.675,3.675,0,0,1-1.294-.857,3.842,3.842,0,0,1-.832-1.327A4.786,4.786,0,0,1,541.4,90.5a4.454,4.454,0,0,1,.286-1.6,3.807,3.807,0,0,1,3.612-2.479,3.622,3.622,0,0,1,1.731.387,3.45,3.45,0,0,1,1.185,1.025,4.406,4.406,0,0,1,.681,1.462,6.67,6.67,0,0,1,.218,1.714h-6.166a2.353,2.353,0,0,0,.227.958,2.416,2.416,0,0,0,.563.756,2.716,2.716,0,0,0,.807.5,2.507,2.507,0,0,0,.958.185,3.48,3.48,0,0,0,1.63-.337,3.345,3.345,0,0,0,.924-.655Zm-1.361-3.445a2.534,2.534,0,0,0-.639-1.546A2.052,2.052,0,0,0,545.3,87.7a2.419,2.419,0,0,0-.966.185,2.318,2.318,0,0,0-.731.487,2.191,2.191,0,0,0-.471.7,2.3,2.3,0,0,0-.185.815Z" transform="translate(-295.152 -47.105)"/><path d="M562.763,85.137h-1.411v-1.26h1.411V81.323h1.512v2.554h2.285v1.26h-2.285v3.848a2.088,2.088,0,0,0,.294,1.294,1.022,1.022,0,0,0,.832.353,1.7,1.7,0,0,0,.722-.135,2.235,2.235,0,0,0,.571-.4l.689.924a2.887,2.887,0,0,1-2.218.89,2.281,2.281,0,0,1-1.823-.672,3.168,3.168,0,0,1-.58-2.1Z" transform="translate(-306.028 -44.327)"/><path d="M575.833,86.938H577.5l1.747,5.965,1.882-5.965h1.294l1.882,6.015,1.714-6.015h1.563l-2.588,7.813h-1.5l-1.814-5.461-1.8,5.461h-1.412Z" transform="translate(-313.923 -47.388)"/><path d="M607.968,94.684a4.141,4.141,0,0,1-1.663-.327,3.952,3.952,0,0,1-1.3-.9,4.244,4.244,0,0,1-.857-1.319,4.3,4.3,0,0,1,0-3.209A4.248,4.248,0,0,1,605,87.609a3.952,3.952,0,0,1,1.3-.9,4.343,4.343,0,0,1,3.31,0,4.057,4.057,0,0,1,1.311.9,4.188,4.188,0,0,1,.865,1.319,4.3,4.3,0,0,1,0,3.209,4.182,4.182,0,0,1-.865,1.319,4.056,4.056,0,0,1-1.311.9,4.1,4.1,0,0,1-1.647.327Zm0-1.31a2.408,2.408,0,0,0,1.092-.244,2.589,2.589,0,0,0,.823-.639,2.777,2.777,0,0,0,.512-.907,3.2,3.2,0,0,0,.176-1.05A3.161,3.161,0,0,0,610.4,89.5a2.805,2.805,0,0,0-.521-.916,2.657,2.657,0,0,0-.824-.647,2.355,2.355,0,0,0-1.084-.244,2.409,2.409,0,0,0-1.092.244,2.588,2.588,0,0,0-.823.638,2.788,2.788,0,0,0-.512.907,3.2,3.2,0,0,0-.176,1.05,3.13,3.13,0,0,0,.176,1.042,2.825,2.825,0,0,0,.521.907,2.649,2.649,0,0,0,.823.647A2.356,2.356,0,0,0,607.968,93.373Z" transform="translate(-329.188 -47.086)"/><path d="M626.683,94.61V87.552c0-.247-.006-.5-.017-.756h1.445l.05,1.26a4.016,4.016,0,0,1,.353-.446,2.624,2.624,0,0,1,.529-.445,3.311,3.311,0,0,1,.723-.345,3.214,3.214,0,0,1,1.411-.109,2.175,2.175,0,0,1,.4.1l-.336,1.411a2.233,2.233,0,0,0-2.386.58,2.5,2.5,0,0,0-.479.765,2.442,2.442,0,0,0-.176.924v4.117Z" transform="translate(-341.635 -47.247)"/><path d="M641.037,79.475h1.512v6.6l3.276-3.209h1.815l-2.957,2.89,3.394,4.923h-1.8l-2.655-3.915-1.075,1.042v2.873h-1.512Z" transform="translate(-349.47 -43.32)"/><path d="M322.142,142.96h3.579a4.934,4.934,0,0,1,1.815.294,3.513,3.513,0,0,1,1.2.756,2.811,2.811,0,0,1,.672,1.05,3.524,3.524,0,0,1,.21,1.193,3.561,3.561,0,0,1-.5,1.9,3.01,3.01,0,0,1-1.563,1.227l2.621,4.789h-1.815l-2.4-4.587H323.7v4.587h-1.563Zm3.713,5.259a2.178,2.178,0,0,0,1.588-.521,1.867,1.867,0,0,0,.529-1.394,1.831,1.831,0,0,0-.571-1.437,2.281,2.281,0,0,0-1.58-.513H323.7v3.865Z" transform="translate(-175.62 -77.929)"/><path d="M350.267,152.846a4.827,4.827,0,0,1-.4.387,3.4,3.4,0,0,1-.7.454,5.342,5.342,0,0,1-1.008.378,4.967,4.967,0,0,1-1.319.16,4.438,4.438,0,0,1-1.664-.3,3.678,3.678,0,0,1-1.294-.857,3.834,3.834,0,0,1-.832-1.327,4.78,4.78,0,0,1-.294-1.714,4.45,4.45,0,0,1,.286-1.6,3.83,3.83,0,0,1,.806-1.294,3.87,3.87,0,0,1,1.235-.866,3.81,3.81,0,0,1,1.571-.319,3.624,3.624,0,0,1,1.731.387,3.448,3.448,0,0,1,1.184,1.025,4.39,4.39,0,0,1,.681,1.462,6.667,6.667,0,0,1,.218,1.714H344.3a2.354,2.354,0,0,0,.227.958,2.423,2.423,0,0,0,.563.756,2.716,2.716,0,0,0,.807.5,2.509,2.509,0,0,0,.958.185,3.482,3.482,0,0,0,1.63-.337,3.339,3.339,0,0,0,.924-.655Zm-1.361-3.445a2.532,2.532,0,0,0-.638-1.546,2.052,2.052,0,0,0-1.613-.639,2.418,2.418,0,0,0-.966.185,2.311,2.311,0,0,0-.731.487,2.185,2.185,0,0,0-.47.7,2.292,2.292,0,0,0-.185.815Zm-2.033-6.772h1.646l-1.294,2.285h-1.26Z" transform="translate(-186.858 -77.75)"/><path d="M364.332,155.968a3.175,3.175,0,0,0,1.008.672,3.428,3.428,0,0,0,1.361.252,2.888,2.888,0,0,0,1.26-.243.8.8,0,0,0,.5-.765.926.926,0,0,0-.109-.462.968.968,0,0,0-.37-.344,3.182,3.182,0,0,0-.689-.277q-.429-.126-1.067-.277a6.593,6.593,0,0,1-.9-.269,2.983,2.983,0,0,1-.8-.446,2.2,2.2,0,0,1-.571-.672,1.932,1.932,0,0,1-.218-.949,1.887,1.887,0,0,1,.26-1,2.311,2.311,0,0,1,.7-.723,3.353,3.353,0,0,1,.983-.445,4.226,4.226,0,0,1,1.134-.151,4.991,4.991,0,0,1,1.706.26,3.936,3.936,0,0,1,1.252.731l-.823,1.042a3.023,3.023,0,0,0-.882-.537,3.222,3.222,0,0,0-1.235-.219,2.45,2.45,0,0,0-1.16.235.81.81,0,0,0-.437.773.8.8,0,0,0,.58.747,9.627,9.627,0,0,0,1.521.462,9.4,9.4,0,0,1,1.033.311,3.156,3.156,0,0,1,.84.454,2.032,2.032,0,0,1,.572.68,2.091,2.091,0,0,1,.21.975,1.961,1.961,0,0,1-.269,1.033,2.359,2.359,0,0,1-.723.748,3.386,3.386,0,0,1-1.042.454,4.9,4.9,0,0,1-1.227.151,4.327,4.327,0,0,1-3.327-1.193Z" transform="translate(-198.117 -81.695)"/><path d="M389.352,156.812a4.818,4.818,0,0,1-.4.387,3.406,3.406,0,0,1-.7.454,5.342,5.342,0,0,1-1.008.378,4.968,4.968,0,0,1-1.319.16,4.436,4.436,0,0,1-1.663-.3,3.678,3.678,0,0,1-1.294-.857,3.835,3.835,0,0,1-.832-1.327,4.782,4.782,0,0,1-.294-1.714,4.451,4.451,0,0,1,.286-1.6,3.832,3.832,0,0,1,.807-1.294,3.871,3.871,0,0,1,1.235-.866,3.811,3.811,0,0,1,1.571-.319,3.623,3.623,0,0,1,1.731.387,3.448,3.448,0,0,1,1.185,1.025,4.39,4.39,0,0,1,.681,1.462,6.667,6.667,0,0,1,.218,1.714h-6.167a2.355,2.355,0,0,0,.227.958,2.425,2.425,0,0,0,.563.756,2.716,2.716,0,0,0,.806.5,2.509,2.509,0,0,0,.958.185,3.482,3.482,0,0,0,1.63-.337,3.339,3.339,0,0,0,.924-.655Zm-1.361-3.445a2.532,2.532,0,0,0-.638-1.546,2.052,2.052,0,0,0-1.613-.639,2.419,2.419,0,0,0-.966.185,2.313,2.313,0,0,0-.731.487,2.185,2.185,0,0,0-.47.7,2.294,2.294,0,0,0-.185.815Z" transform="translate(-208.165 -81.716)"/><path d="M407.759,157.008a2.606,2.606,0,0,1-1.151.874,3.926,3.926,0,0,1-1.47.285,3.775,3.775,0,0,1-.966-.126,2.523,2.523,0,0,1-.874-.42,2.208,2.208,0,0,1-.639-.756,2.409,2.409,0,0,1-.244-1.134,2.523,2.523,0,0,1,.882-2.016,3.8,3.8,0,0,1,2.546-.756q.269,0,.571.017l.571.034c.179.011.336.023.471.034s.229.023.286.034v-.286a1.432,1.432,0,0,0-.529-1.252,2.426,2.426,0,0,0-1.437-.378,3.386,3.386,0,0,0-1.411.244,5.582,5.582,0,0,0-.874.5l-.706-1.025a3.674,3.674,0,0,1,.487-.336,4.191,4.191,0,0,1,.672-.311,5.493,5.493,0,0,1,.874-.236,6.137,6.137,0,0,1,1.126-.092,3.57,3.57,0,0,1,2.378.731,2.566,2.566,0,0,1,.865,2.075v4.554q0,.4.017.689h-1.412Zm-.017-2.756c-.045-.011-.132-.025-.26-.042s-.277-.03-.445-.042-.347-.022-.538-.034-.376-.017-.555-.017a2.937,2.937,0,0,0-1.033.151,1.758,1.758,0,0,0-.622.378,1.2,1.2,0,0,0-.311.5,1.818,1.818,0,0,0-.084.529,1.132,1.132,0,0,0,.437.967,1.979,1.979,0,0,0,1.21.328,2.312,2.312,0,0,0,.832-.151,2.454,2.454,0,0,0,.7-.4,2.043,2.043,0,0,0,.487-.588,1.414,1.414,0,0,0,.185-.689Z" transform="translate(-219.381 -81.71)"/><path d="M422.655,150.425h1.512v4.587a2.336,2.336,0,0,0,.454,1.6,1.687,1.687,0,0,0,1.311.5,2.005,2.005,0,0,0,1.084-.269,2.178,2.178,0,0,0,.7-.7,2.881,2.881,0,0,0,.378-.974,5.677,5.677,0,0,0,.109-1.117v-3.629h1.512v7.024q0,.37.017.79h-1.445l-.05-1.159a5.537,5.537,0,0,1-.37.437,2.472,2.472,0,0,1-.538.428,3.458,3.458,0,0,1-.739.328,3.146,3.146,0,0,1-.958.135,2.741,2.741,0,0,1-2.251-.882,3.694,3.694,0,0,1-.723-2.411Z" transform="translate(-230.413 -81.999)"/><path d="M457.675,156.861a3.943,3.943,0,0,1-1.285.949,4.108,4.108,0,0,1-1.773.361,4.49,4.49,0,0,1-1.706-.311,3.632,3.632,0,0,1-2.109-2.168,4.74,4.74,0,0,1-.286-1.672,4.3,4.3,0,0,1,.3-1.613,3.987,3.987,0,0,1,2.142-2.209,4.424,4.424,0,0,1,3.4.025,3.945,3.945,0,0,1,1.294.958l-.991.958a2.566,2.566,0,0,0-.857-.689,2.644,2.644,0,0,0-1.193-.252,2.5,2.5,0,0,0-1.084.227,2.332,2.332,0,0,0-.807.622,2.867,2.867,0,0,0-.5.907,3.254,3.254,0,0,0-.176,1.067,3.2,3.2,0,0,0,.176,1.05,2.862,2.862,0,0,0,.5.907,2.393,2.393,0,0,0,1.89.866,2.835,2.835,0,0,0,1.235-.261,2.541,2.541,0,0,0,.9-.7Z" transform="translate(-245.605 -81.697)"/><path d="M474.81,157.008a2.607,2.607,0,0,1-1.151.874,3.927,3.927,0,0,1-1.47.285,3.775,3.775,0,0,1-.966-.126,2.522,2.522,0,0,1-.874-.42,2.205,2.205,0,0,1-.639-.756,2.408,2.408,0,0,1-.244-1.134,2.522,2.522,0,0,1,.882-2.016,3.8,3.8,0,0,1,2.546-.756q.269,0,.571.017l.571.034c.179.011.336.023.471.034s.229.023.286.034v-.286a1.431,1.431,0,0,0-.529-1.252,2.426,2.426,0,0,0-1.437-.378,3.385,3.385,0,0,0-1.411.244,5.581,5.581,0,0,0-.874.5l-.706-1.025a3.664,3.664,0,0,1,.487-.336,4.194,4.194,0,0,1,.672-.311,5.5,5.5,0,0,1,.874-.235A6.135,6.135,0,0,1,473,149.9a3.57,3.57,0,0,1,2.378.731,2.567,2.567,0,0,1,.865,2.075v4.554q0,.4.017.689h-1.411Zm-.017-2.756c-.045-.011-.132-.025-.26-.042s-.277-.03-.445-.042-.347-.022-.538-.034-.376-.017-.555-.017a2.936,2.936,0,0,0-1.033.151,1.758,1.758,0,0,0-.622.378,1.2,1.2,0,0,0-.311.5,1.818,1.818,0,0,0-.084.529,1.132,1.132,0,0,0,.437.967,1.979,1.979,0,0,0,1.21.327,2.31,2.31,0,0,0,.832-.151,2.455,2.455,0,0,0,.7-.4,2.044,2.044,0,0,0,.487-.588,1.414,1.414,0,0,0,.185-.689Z" transform="translate(-255.935 -81.71)"/><path d="M489.8,158.006V151c0-.258-.006-.527-.017-.807h1.445l.051,1.176q.151-.2.37-.446a2.545,2.545,0,0,1,.538-.445,3.163,3.163,0,0,1,.748-.336,3.214,3.214,0,0,1,.966-.135,2.78,2.78,0,0,1,2.268.891,3.673,3.673,0,0,1,.74,2.42v4.688H495.4v-4.57a2.32,2.32,0,0,0-.471-1.6,1.712,1.712,0,0,0-1.328-.512,2.054,2.054,0,0,0-1.092.269,2.078,2.078,0,0,0-.7.7,3.119,3.119,0,0,0-.378.975,5.263,5.263,0,0,0-.118,1.117v3.629Z" transform="translate(-267.014 -81.767)"/><path d="M515.188,157.008a2.609,2.609,0,0,1-1.151.874,3.927,3.927,0,0,1-1.47.285,3.777,3.777,0,0,1-.966-.126,2.523,2.523,0,0,1-.874-.42,2.206,2.206,0,0,1-.638-.756,2.4,2.4,0,0,1-.244-1.134,2.522,2.522,0,0,1,.882-2.016,3.8,3.8,0,0,1,2.546-.756q.269,0,.571.017l.572.034q.268.017.47.034c.134.011.229.023.286.034v-.286a1.432,1.432,0,0,0-.529-1.252,2.426,2.426,0,0,0-1.437-.378,3.386,3.386,0,0,0-1.412.244,5.576,5.576,0,0,0-.874.5l-.705-1.025a3.627,3.627,0,0,1,.487-.336,4.183,4.183,0,0,1,.672-.311,5.511,5.511,0,0,1,.874-.235,6.137,6.137,0,0,1,1.126-.092,3.571,3.571,0,0,1,2.378.731,2.566,2.566,0,0,1,.865,2.075v4.554q0,.4.017.689h-1.411Zm-.017-2.756c-.045-.011-.132-.025-.261-.042s-.277-.03-.445-.042-.347-.022-.538-.034-.375-.017-.555-.017a2.936,2.936,0,0,0-1.033.151,1.753,1.753,0,0,0-.621.378,1.2,1.2,0,0,0-.311.5,1.821,1.821,0,0,0-.084.529,1.133,1.133,0,0,0,.437.967,1.978,1.978,0,0,0,1.21.327,2.313,2.313,0,0,0,.832-.151,2.46,2.46,0,0,0,.7-.4,2.04,2.04,0,0,0,.487-.588,1.412,1.412,0,0,0,.185-.689Z" transform="translate(-277.947 -81.71)"/><path d="M535.366,153.179q-.084.1-.277.311a2.53,2.53,0,0,1-.512.412,3.725,3.725,0,0,1-.748.353,3,3,0,0,1-1,.151,3.338,3.338,0,0,1-1.378-.286,3.279,3.279,0,0,1-1.109-.806,3.657,3.657,0,0,1-.731-1.268,5.061,5.061,0,0,1-.26-1.672,4.335,4.335,0,0,1,.387-1.907,3.986,3.986,0,0,1,.983-1.311,3.887,3.887,0,0,1,1.294-.748,4.132,4.132,0,0,1,1.319-.235,3.417,3.417,0,0,1,1.311.2q.47.2.722.3v-3.713h1.512V153.38q0,.37.016.79h-1.478Zm0-5.091a3.9,3.9,0,0,0-.622-.361,2.96,2.96,0,0,0-1.294-.227,2.52,2.52,0,0,0-1.017.2,2.408,2.408,0,0,0-.806.571,2.6,2.6,0,0,0-.538.907,3.562,3.562,0,0,0-.193,1.21,4,4,0,0,0,.134,1.05,2.525,2.525,0,0,0,.412.865,1.934,1.934,0,0,0,.706.58,2.291,2.291,0,0,0,1.016.21,2.161,2.161,0,0,0,1.008-.219,2.078,2.078,0,0,0,.68-.546,2.253,2.253,0,0,0,.387-.722,2.411,2.411,0,0,0,.126-.731Z" transform="translate(-288.581 -77.931)"/><path d="M551.37,143.627h1.7v1.7h-1.7Zm.1,3.092h1.513v7.813H551.47Z" transform="translate(-300.587 -78.293)"/><path d="M567.229,156.812a4.846,4.846,0,0,1-.4.387,3.422,3.422,0,0,1-.7.454,5.358,5.358,0,0,1-1.008.378,4.968,4.968,0,0,1-1.319.16,4.435,4.435,0,0,1-1.664-.3,3.676,3.676,0,0,1-1.294-.857,3.84,3.84,0,0,1-.832-1.328,4.779,4.779,0,0,1-.294-1.714,4.449,4.449,0,0,1,.286-1.6,3.831,3.831,0,0,1,.806-1.294,3.87,3.87,0,0,1,1.235-.866,3.814,3.814,0,0,1,1.571-.319,3.623,3.623,0,0,1,1.731.387,3.452,3.452,0,0,1,1.185,1.025,4.408,4.408,0,0,1,.681,1.462,6.672,6.672,0,0,1,.218,1.714h-6.166a2.354,2.354,0,0,0,.227.958,2.417,2.417,0,0,0,.563.756,2.718,2.718,0,0,0,.807.5,2.508,2.508,0,0,0,.958.185,3.481,3.481,0,0,0,1.63-.337,3.343,3.343,0,0,0,.924-.655Zm-1.361-3.445a2.533,2.533,0,0,0-.639-1.546,2.052,2.052,0,0,0-1.613-.639,2.417,2.417,0,0,0-.966.185,2.316,2.316,0,0,0-.731.487,2.189,2.189,0,0,0-.471.7,2.3,2.3,0,0,0-.185.815Z" transform="translate(-305.137 -81.716)"/><path d="M581.273,158.006V151c0-.258-.006-.527-.017-.807H582.7l.051,1.176q.151-.2.37-.446a2.541,2.541,0,0,1,.538-.445,3.164,3.164,0,0,1,.748-.336,3.214,3.214,0,0,1,.966-.135,2.781,2.781,0,0,1,2.268.891,3.672,3.672,0,0,1,.74,2.42v4.688h-1.513v-4.57a2.319,2.319,0,0,0-.471-1.6,1.712,1.712,0,0,0-1.327-.512,2.053,2.053,0,0,0-1.092.269,2.076,2.076,0,0,0-.7.7,3.122,3.122,0,0,0-.378.975,5.265,5.265,0,0,0-.118,1.117v3.629Z" transform="translate(-316.879 -81.767)"/><path d="M326.788,190.121q-.084.1-.277.311a2.531,2.531,0,0,1-.513.412,3.735,3.735,0,0,1-.748.353,3,3,0,0,1-1,.151,3.335,3.335,0,0,1-1.378-.286,3.281,3.281,0,0,1-1.109-.807,3.661,3.661,0,0,1-.731-1.268,5.054,5.054,0,0,1-.26-1.672,4.336,4.336,0,0,1,.387-1.907,3.992,3.992,0,0,1,.983-1.311,3.886,3.886,0,0,1,1.294-.748,4.135,4.135,0,0,1,1.319-.235,3.416,3.416,0,0,1,1.311.2q.47.2.722.3v-3.713H328.3v10.418q0,.37.017.79h-1.479Zm0-5.091a3.9,3.9,0,0,0-.622-.361,2.958,2.958,0,0,0-1.294-.227,2.519,2.519,0,0,0-1.017.2,2.41,2.41,0,0,0-.807.571,2.6,2.6,0,0,0-.538.907,3.556,3.556,0,0,0-.193,1.21,3.984,3.984,0,0,0,.134,1.05,2.52,2.52,0,0,0,.412.865,1.931,1.931,0,0,0,.706.58,2.288,2.288,0,0,0,1.017.21,2.161,2.161,0,0,0,1.008-.219,2.082,2.082,0,0,0,.681-.546,2.259,2.259,0,0,0,.387-.722,2.423,2.423,0,0,0,.126-.731Z" transform="translate(-174.873 -98.071)"/><path d="M349.527,193.755a4.829,4.829,0,0,1-.4.387,3.4,3.4,0,0,1-.7.454,5.346,5.346,0,0,1-1.008.378,4.968,4.968,0,0,1-1.319.16,4.436,4.436,0,0,1-1.663-.3,3.678,3.678,0,0,1-1.294-.857,3.837,3.837,0,0,1-.832-1.327,4.784,4.784,0,0,1-.294-1.714,4.452,4.452,0,0,1,.286-1.6,3.807,3.807,0,0,1,3.612-2.479,3.623,3.623,0,0,1,1.731.387,3.448,3.448,0,0,1,1.185,1.025,4.388,4.388,0,0,1,.681,1.462,6.668,6.668,0,0,1,.218,1.714h-6.166a2.354,2.354,0,0,0,.227.958,2.425,2.425,0,0,0,.563.756,2.717,2.717,0,0,0,.807.5,2.508,2.508,0,0,0,.958.185,3.483,3.483,0,0,0,1.63-.337,3.34,3.34,0,0,0,.924-.655Zm-1.361-3.445a2.532,2.532,0,0,0-.638-1.546,2.053,2.053,0,0,0-1.613-.639,2.419,2.419,0,0,0-.966.185,2.313,2.313,0,0,0-.731.487,2.185,2.185,0,0,0-.47.7,2.293,2.293,0,0,0-.185.815Z" transform="translate(-186.454 -101.855)"/><path d="M376.365,190.121q-.084.1-.277.311a2.53,2.53,0,0,1-.513.412,3.732,3.732,0,0,1-.748.353,3,3,0,0,1-1,.151,3.335,3.335,0,0,1-1.378-.286,3.281,3.281,0,0,1-1.109-.807,3.661,3.661,0,0,1-.731-1.268,5.055,5.055,0,0,1-.26-1.672,4.337,4.337,0,0,1,.387-1.907,3.991,3.991,0,0,1,.983-1.311,3.887,3.887,0,0,1,1.294-.748,4.134,4.134,0,0,1,1.319-.235,3.416,3.416,0,0,1,1.311.2q.47.2.722.3v-3.713h1.512v10.418q0,.37.017.79h-1.479Zm0-5.091a3.9,3.9,0,0,0-.622-.361,2.958,2.958,0,0,0-1.294-.227,2.52,2.52,0,0,0-1.017.2,2.41,2.41,0,0,0-.807.571,2.6,2.6,0,0,0-.538.907,3.558,3.558,0,0,0-.193,1.21,3.984,3.984,0,0,0,.134,1.05,2.519,2.519,0,0,0,.412.865,1.93,1.93,0,0,0,.706.58,2.287,2.287,0,0,0,1.017.21,2.161,2.161,0,0,0,1.008-.219,2.081,2.081,0,0,0,.681-.546,2.257,2.257,0,0,0,.387-.722,2.422,2.422,0,0,0,.126-.731Z" transform="translate(-201.9 -98.071)"/><path d="M395.764,195.113a4.143,4.143,0,0,1-1.663-.327,3.951,3.951,0,0,1-1.3-.9,4.249,4.249,0,0,1-.857-1.319,4.23,4.23,0,0,1,.857-4.529,3.951,3.951,0,0,1,1.3-.9,4.136,4.136,0,0,1,1.663-.328,4.093,4.093,0,0,1,1.647.328,4.046,4.046,0,0,1,1.311.9,4.2,4.2,0,0,1,0,5.847,4.047,4.047,0,0,1-1.311.9A4.1,4.1,0,0,1,395.764,195.113Zm0-1.31a2.409,2.409,0,0,0,1.092-.244,2.587,2.587,0,0,0,.823-.639,2.78,2.78,0,0,0,.513-.907,3.2,3.2,0,0,0,.176-1.05,3.164,3.164,0,0,0-.176-1.033,2.806,2.806,0,0,0-.521-.916,2.66,2.66,0,0,0-.823-.647,2.356,2.356,0,0,0-1.084-.244,2.408,2.408,0,0,0-1.092.244,2.586,2.586,0,0,0-.823.638,2.783,2.783,0,0,0-.512.907,3.206,3.206,0,0,0-.176,1.05,3.126,3.126,0,0,0,.176,1.042,2.818,2.818,0,0,0,.521.907,2.657,2.657,0,0,0,.823.647A2.357,2.357,0,0,0,395.764,193.8Z" transform="translate(-213.502 -101.836)"/><path d="M420.843,193.8a3.944,3.944,0,0,1-1.285.949,4.107,4.107,0,0,1-1.773.361,4.491,4.491,0,0,1-1.706-.311,3.632,3.632,0,0,1-2.109-2.168,4.737,4.737,0,0,1-.286-1.672,4.3,4.3,0,0,1,.3-1.613,3.987,3.987,0,0,1,2.142-2.21,4.425,4.425,0,0,1,3.4.025,3.944,3.944,0,0,1,1.294.958l-.992.958a2.565,2.565,0,0,0-.857-.689,2.642,2.642,0,0,0-1.193-.252,2.5,2.5,0,0,0-1.084.227,2.331,2.331,0,0,0-.806.622,2.865,2.865,0,0,0-.5.907,3.253,3.253,0,0,0-.176,1.067,3.2,3.2,0,0,0,.176,1.05,2.859,2.859,0,0,0,.5.907,2.394,2.394,0,0,0,1.89.866,2.836,2.836,0,0,0,1.235-.26,2.544,2.544,0,0,0,.9-.7Z" transform="translate(-225.525 -101.837)"/><path d="M433.516,187.368h1.512v4.587a2.337,2.337,0,0,0,.454,1.6,1.686,1.686,0,0,0,1.311.5,2.005,2.005,0,0,0,1.084-.269,2.176,2.176,0,0,0,.7-.7,2.883,2.883,0,0,0,.378-.974,5.691,5.691,0,0,0,.109-1.118v-3.629h1.512v7.024q0,.37.017.79h-1.445l-.05-1.159a5.589,5.589,0,0,1-.37.437,2.469,2.469,0,0,1-.538.428,3.459,3.459,0,0,1-.739.328,3.147,3.147,0,0,1-.958.135,2.741,2.741,0,0,1-2.251-.882,3.694,3.694,0,0,1-.723-2.411Z" transform="translate(-236.334 -102.139)"/><path d="M454.56,194.949v-7.007q0-.387-.017-.807h1.445l.05,1.176a4.051,4.051,0,0,1,.353-.446,2.734,2.734,0,0,1,.521-.445,2.911,2.911,0,0,1,.714-.336,3.051,3.051,0,0,1,.949-.135,2.862,2.862,0,0,1,1.5.361,2.442,2.442,0,0,1,.932,1.05,4.955,4.955,0,0,1,1.151-.983,3.109,3.109,0,0,1,1.689-.429,2.7,2.7,0,0,1,2.235.9,3.74,3.74,0,0,1,.723,2.411v4.688H465.3v-4.57a2.476,2.476,0,0,0-.429-1.6,1.54,1.54,0,0,0-1.252-.512,1.941,1.941,0,0,0-.865.193,2.308,2.308,0,0,0-.689.512,2.252,2.252,0,0,0-.454.748,2.549,2.549,0,0,0-.16.9v4.335h-1.512v-4.57a2.475,2.475,0,0,0-.428-1.6,1.519,1.519,0,0,0-1.235-.512,1.9,1.9,0,0,0-1.042.269,2.132,2.132,0,0,0-.68.7,2.977,2.977,0,0,0-.37.983,5.712,5.712,0,0,0-.109,1.109v3.629Z" transform="translate(-247.8 -101.907)"/><path d="M493.566,193.755a4.769,4.769,0,0,1-.4.387,3.425,3.425,0,0,1-.7.454,5.37,5.37,0,0,1-1.008.378,4.969,4.969,0,0,1-1.319.16,4.433,4.433,0,0,1-1.663-.3,3.669,3.669,0,0,1-1.294-.857,3.841,3.841,0,0,1-.832-1.328,4.781,4.781,0,0,1-.294-1.714,4.443,4.443,0,0,1,.286-1.6,3.823,3.823,0,0,1,.807-1.294,3.864,3.864,0,0,1,1.235-.866,3.812,3.812,0,0,1,1.571-.319,3.622,3.622,0,0,1,1.73.387,3.452,3.452,0,0,1,1.185,1.025,4.408,4.408,0,0,1,.681,1.462,6.679,6.679,0,0,1,.218,1.714H487.6a2.347,2.347,0,0,0,.227.958,2.423,2.423,0,0,0,.563.756,2.727,2.727,0,0,0,.807.5,2.511,2.511,0,0,0,.958.185,3.48,3.48,0,0,0,1.629-.337,3.348,3.348,0,0,0,.925-.655ZM492.2,190.31a2.533,2.533,0,0,0-.638-1.546,2.052,2.052,0,0,0-1.613-.639,2.42,2.42,0,0,0-.967.185,2.318,2.318,0,0,0-.731.487,2.192,2.192,0,0,0-.47.7,2.285,2.285,0,0,0-.185.815Z" transform="translate(-264.979 -101.855)"/><path d="M507.61,194.949v-7.007q0-.386-.017-.807h1.445l.05,1.176q.151-.2.37-.446a2.547,2.547,0,0,1,.538-.445,3.17,3.17,0,0,1,.748-.336,3.215,3.215,0,0,1,.966-.135,2.78,2.78,0,0,1,2.268.891,3.672,3.672,0,0,1,.74,2.42v4.688h-1.512v-4.57a2.319,2.319,0,0,0-.471-1.6,1.712,1.712,0,0,0-1.327-.512,2.054,2.054,0,0,0-1.092.269,2.077,2.077,0,0,0-.7.7,3.117,3.117,0,0,0-.378.975,5.266,5.266,0,0,0-.118,1.117v3.629Z" transform="translate(-276.721 -101.907)"/><path d="M528.436,185.567h-1.412v-1.26h1.412v-2.554h1.512v2.554h2.285v1.26h-2.285v3.848a2.088,2.088,0,0,0,.294,1.294,1.022,1.022,0,0,0,.832.353,1.7,1.7,0,0,0,.722-.135,2.241,2.241,0,0,0,.572-.4l.689.924a2.887,2.887,0,0,1-2.218.89,2.281,2.281,0,0,1-1.823-.672,3.167,3.167,0,0,1-.58-2.1Z" transform="translate(-287.314 -99.078)"/><path d="M548.1,193.951a2.609,2.609,0,0,1-1.151.874,3.925,3.925,0,0,1-1.47.286,3.775,3.775,0,0,1-.966-.126,2.525,2.525,0,0,1-.874-.42,2.2,2.2,0,0,1-.638-.756,2.4,2.4,0,0,1-.244-1.134,2.521,2.521,0,0,1,.882-2.016,3.805,3.805,0,0,1,2.546-.756q.269,0,.571.017l.571.034c.179.011.336.023.471.034a2.853,2.853,0,0,1,.285.034v-.286a1.432,1.432,0,0,0-.529-1.252,2.427,2.427,0,0,0-1.437-.378,3.387,3.387,0,0,0-1.412.244,5.579,5.579,0,0,0-.874.5l-.706-1.025a3.621,3.621,0,0,1,.487-.336,4.177,4.177,0,0,1,.672-.311,5.507,5.507,0,0,1,.874-.236,6.139,6.139,0,0,1,1.126-.092,3.571,3.571,0,0,1,2.378.731,2.566,2.566,0,0,1,.865,2.075V194.2q0,.4.017.689h-1.411Zm-.017-2.755c-.045-.011-.132-.025-.26-.042s-.278-.03-.445-.042-.348-.022-.538-.034-.375-.017-.555-.017a2.935,2.935,0,0,0-1.033.151,1.753,1.753,0,0,0-.622.378,1.2,1.2,0,0,0-.311.5,1.811,1.811,0,0,0-.084.529,1.132,1.132,0,0,0,.437.966,1.978,1.978,0,0,0,1.21.327,2.312,2.312,0,0,0,.832-.151,2.461,2.461,0,0,0,.7-.4,2.04,2.04,0,0,0,.487-.588,1.41,1.41,0,0,0,.185-.689Z" transform="translate(-295.891 -101.85)"/><path d="M562.9,185.567h-1.412v-1.26H562.9v-2.554h1.512v2.554H566.7v1.26h-2.285v3.848a2.088,2.088,0,0,0,.294,1.294,1.022,1.022,0,0,0,.832.353,1.7,1.7,0,0,0,.722-.135,2.236,2.236,0,0,0,.572-.4l.689.924a2.888,2.888,0,0,1-2.218.89,2.28,2.28,0,0,1-1.823-.672,3.168,3.168,0,0,1-.58-2.1Z" transform="translate(-306.104 -99.078)"/><path d="M578.153,180.57h1.7v1.7h-1.7Zm.1,3.092h1.513v7.813h-1.513Z" transform="translate(-315.187 -98.433)"/><path d="M590.671,195.114a4.141,4.141,0,0,1-1.664-.327,3.952,3.952,0,0,1-1.3-.9,4.243,4.243,0,0,1-.857-1.319,4.23,4.23,0,0,1,.857-4.529,3.955,3.955,0,0,1,1.3-.9,4.343,4.343,0,0,1,3.31,0,4.058,4.058,0,0,1,1.311.9,4.19,4.19,0,0,1,.865,1.319,4.3,4.3,0,0,1,0,3.209,4.183,4.183,0,0,1-.865,1.319,4.059,4.059,0,0,1-1.311.9A4.1,4.1,0,0,1,590.671,195.114Zm0-1.31a2.408,2.408,0,0,0,1.092-.244,2.588,2.588,0,0,0,.823-.639,2.773,2.773,0,0,0,.512-.907,3.193,3.193,0,0,0,.176-1.05,3.156,3.156,0,0,0-.176-1.033,2.8,2.8,0,0,0-.521-.916,2.658,2.658,0,0,0-.824-.647,2.353,2.353,0,0,0-1.083-.244,2.409,2.409,0,0,0-1.092.244,2.587,2.587,0,0,0-.823.638,2.787,2.787,0,0,0-.512.907,3.2,3.2,0,0,0-.176,1.05,3.126,3.126,0,0,0,.176,1.042,2.821,2.821,0,0,0,.521.907,2.649,2.649,0,0,0,.823.647A2.357,2.357,0,0,0,590.671,193.8Z" transform="translate(-319.758 -101.836)"/><path d="M609.385,194.949v-7.007c0-.258-.006-.527-.017-.807h1.445l.05,1.176q.152-.2.37-.446a2.542,2.542,0,0,1,.538-.445,3.173,3.173,0,0,1,.748-.336,3.215,3.215,0,0,1,.966-.135,2.78,2.78,0,0,1,2.268.891,3.673,3.673,0,0,1,.74,2.42v4.688H614.98v-4.57a2.32,2.32,0,0,0-.471-1.6,1.712,1.712,0,0,0-1.328-.512,2.054,2.054,0,0,0-1.092.269,2.076,2.076,0,0,0-.7.7,3.118,3.118,0,0,0-.378.975,5.27,5.27,0,0,0-.118,1.117v3.629Z" transform="translate(-332.205 -101.907)"/><path d="M321.6,235.282V224.914q0-.387-.017-.806h1.445l.05,1.109a4.129,4.129,0,0,1,.336-.37,2.98,2.98,0,0,1,.546-.42,3.563,3.563,0,0,1,.764-.345,3.246,3.246,0,0,1,1.008-.143,3.44,3.44,0,0,1,1.571.336,3.171,3.171,0,0,1,1.1.907,3.893,3.893,0,0,1,.647,1.311,5.7,5.7,0,0,1,.21,1.563,4.292,4.292,0,0,1-.361,1.832,3.793,3.793,0,0,1-.941,1.277,3.852,3.852,0,0,1-1.294.748,4.34,4.34,0,0,1-1.4.243A4.109,4.109,0,0,1,324,232q-.479-.159-.9-.344v3.629Zm1.5-5.058a3.024,3.024,0,0,0,.773.42,3.414,3.414,0,0,0,1.26.2,2.59,2.59,0,0,0,1.05-.21,2.416,2.416,0,0,0,.823-.588,2.653,2.653,0,0,0,.529-.882,3.208,3.208,0,0,0,.185-1.109,4.433,4.433,0,0,0-.126-1.075,2.586,2.586,0,0,0-.4-.891,1.994,1.994,0,0,0-.714-.613,2.313,2.313,0,0,0-1.075-.227,2.175,2.175,0,0,0-1.378.445,2.39,2.39,0,0,0-.807,1.3,2.346,2.346,0,0,0-.1.58q-.017.311-.017.647Z" transform="translate(-175.318 -122.076)"/><path d="M346.483,232.056a4.143,4.143,0,0,1-1.663-.328,3.951,3.951,0,0,1-1.3-.9,4.249,4.249,0,0,1-.857-1.319,4.231,4.231,0,0,1,.857-4.529,3.95,3.95,0,0,1,1.3-.9,4.136,4.136,0,0,1,1.663-.328,4.093,4.093,0,0,1,1.647.328,4.046,4.046,0,0,1,1.311.9,4.2,4.2,0,0,1,0,5.847,4.049,4.049,0,0,1-1.311.9A4.1,4.1,0,0,1,346.483,232.056Zm0-1.31a2.408,2.408,0,0,0,1.092-.244,2.586,2.586,0,0,0,.823-.639,2.776,2.776,0,0,0,.513-.907,3.206,3.206,0,0,0,.176-1.05,3.161,3.161,0,0,0-.176-1.033,2.806,2.806,0,0,0-.521-.916,2.66,2.66,0,0,0-.823-.647,2.357,2.357,0,0,0-1.084-.244,2.409,2.409,0,0,0-1.092.244,2.588,2.588,0,0,0-.823.638,2.785,2.785,0,0,0-.512.907,3.205,3.205,0,0,0-.177,1.05,3.129,3.129,0,0,0,.177,1.042,2.818,2.818,0,0,0,.521.907,2.658,2.658,0,0,0,.823.647A2.357,2.357,0,0,0,346.483,230.746Z" transform="translate(-186.636 -121.976)"/><path d="M365.1,224.311h1.512V228.9a2.336,2.336,0,0,0,.454,1.6,1.686,1.686,0,0,0,1.311.5,2.006,2.006,0,0,0,1.084-.269,2.178,2.178,0,0,0,.7-.7,2.881,2.881,0,0,0,.378-.974,5.688,5.688,0,0,0,.109-1.117V224.31h1.512v7.024q0,.37.017.79h-1.445l-.05-1.159a5.569,5.569,0,0,1-.37.437,2.473,2.473,0,0,1-.538.428,3.462,3.462,0,0,1-.739.328,3.148,3.148,0,0,1-.958.135,2.741,2.741,0,0,1-2.252-.882A3.7,3.7,0,0,1,365.1,229Z" transform="translate(-199.035 -122.279)"/><path d="M386.143,231.983v-7.057q0-.37-.017-.756h1.445l.05,1.26a4.017,4.017,0,0,1,.353-.445,2.613,2.613,0,0,1,.529-.445,3.308,3.308,0,0,1,.722-.345,3.217,3.217,0,0,1,1.412-.109,2.171,2.171,0,0,1,.395.1L390.7,225.6a2.233,2.233,0,0,0-2.386.58,2.492,2.492,0,0,0-.479.765,2.449,2.449,0,0,0-.176.924v4.117Z" transform="translate(-210.502 -122.138)"/><path d="M408.144,216.848h1.512v11.207h-1.512Z" transform="translate(-222.505 -118.211)"/><path d="M421.317,230.894a2.607,2.607,0,0,1-1.151.874,3.927,3.927,0,0,1-1.47.285,3.776,3.776,0,0,1-.966-.126,2.524,2.524,0,0,1-.874-.42,2.207,2.207,0,0,1-.639-.756,2.41,2.41,0,0,1-.244-1.134,2.523,2.523,0,0,1,.882-2.016,3.8,3.8,0,0,1,2.546-.756q.269,0,.571.017l.571.034c.179.011.336.023.47.034s.23.023.286.034v-.286a1.432,1.432,0,0,0-.529-1.252,2.426,2.426,0,0,0-1.437-.378,3.386,3.386,0,0,0-1.411.244,5.585,5.585,0,0,0-.874.5l-.706-1.025a3.672,3.672,0,0,1,.487-.336,4.188,4.188,0,0,1,.672-.311,5.491,5.491,0,0,1,.874-.235,6.139,6.139,0,0,1,1.126-.092,3.571,3.571,0,0,1,2.378.731,2.566,2.566,0,0,1,.865,2.075v4.554q0,.4.017.689H421.35Zm-.017-2.755c-.045-.011-.132-.025-.261-.042s-.277-.03-.445-.042l-.538-.034c-.19-.011-.376-.017-.555-.017a2.939,2.939,0,0,0-1.033.151,1.758,1.758,0,0,0-.622.378,1.2,1.2,0,0,0-.311.5,1.819,1.819,0,0,0-.084.529,1.132,1.132,0,0,0,.437.966,1.979,1.979,0,0,0,1.21.327,2.312,2.312,0,0,0,.832-.151,2.457,2.457,0,0,0,.7-.4,2.044,2.044,0,0,0,.487-.588,1.414,1.414,0,0,0,.185-.689Z" transform="translate(-226.772 -121.99)"/><path d="M443.921,231.983v-7.057q0-.37-.017-.756h1.445l.05,1.26a4.005,4.005,0,0,1,.353-.445,2.618,2.618,0,0,1,.529-.445,3.312,3.312,0,0,1,.722-.345,3.217,3.217,0,0,1,1.412-.109,2.171,2.171,0,0,1,.395.1l-.336,1.411a2.233,2.233,0,0,0-2.386.58,2.491,2.491,0,0,0-.479.765,2.448,2.448,0,0,0-.176.924v4.117Z" transform="translate(-242 -122.138)"/><path d="M464.049,230.7a4.831,4.831,0,0,1-.4.387,3.408,3.408,0,0,1-.7.454,5.343,5.343,0,0,1-1.008.378,4.967,4.967,0,0,1-1.319.16,4.437,4.437,0,0,1-1.664-.3,3.68,3.68,0,0,1-1.294-.857,3.834,3.834,0,0,1-.832-1.328,4.782,4.782,0,0,1-.294-1.714,4.449,4.449,0,0,1,.286-1.6,3.827,3.827,0,0,1,.806-1.294,3.87,3.87,0,0,1,1.235-.866,3.811,3.811,0,0,1,1.571-.319,3.623,3.623,0,0,1,1.731.387,3.448,3.448,0,0,1,1.185,1.025,4.391,4.391,0,0,1,.68,1.462,6.667,6.667,0,0,1,.218,1.714h-6.167a2.356,2.356,0,0,0,.227.958,2.427,2.427,0,0,0,.563.756,2.719,2.719,0,0,0,.807.5,2.51,2.51,0,0,0,.958.185,3.483,3.483,0,0,0,1.63-.336,3.339,3.339,0,0,0,.924-.655Zm-1.361-3.445a2.532,2.532,0,0,0-.639-1.546,2.052,2.052,0,0,0-1.613-.639,2.419,2.419,0,0,0-.966.185,2.314,2.314,0,0,0-.731.487,2.187,2.187,0,0,0-.47.7,2.292,2.292,0,0,0-.185.815Z" transform="translate(-248.888 -121.995)"/><path d="M484.458,230.746a3.939,3.939,0,0,1-1.285.949,4.108,4.108,0,0,1-1.773.361,4.492,4.492,0,0,1-1.706-.311,3.632,3.632,0,0,1-2.109-2.168,4.735,4.735,0,0,1-.286-1.672,4.3,4.3,0,0,1,.3-1.613,3.987,3.987,0,0,1,2.142-2.209,4.423,4.423,0,0,1,3.4.025,3.941,3.941,0,0,1,1.294.958l-.991.958a2.566,2.566,0,0,0-.857-.689,2.642,2.642,0,0,0-1.193-.252,2.5,2.5,0,0,0-1.084.227,2.329,2.329,0,0,0-.806.622,2.864,2.864,0,0,0-.5.907,3.252,3.252,0,0,0-.176,1.067,3.2,3.2,0,0,0,.176,1.05,2.858,2.858,0,0,0,.5.907,2.393,2.393,0,0,0,1.891.866,2.834,2.834,0,0,0,1.235-.26,2.546,2.546,0,0,0,.9-.7Z" transform="translate(-260.206 -121.977)"/><path d="M497.213,216.848h1.5V221.4a5.591,5.591,0,0,1,.37-.437,2.686,2.686,0,0,1,.538-.437,3.2,3.2,0,0,1,.739-.336,3.134,3.134,0,0,1,.958-.135,2.78,2.78,0,0,1,2.268.891,3.672,3.672,0,0,1,.74,2.42v4.688h-1.513v-4.571a2.317,2.317,0,0,0-.471-1.6,1.712,1.712,0,0,0-1.327-.512,2.054,2.054,0,0,0-1.092.269,2.077,2.077,0,0,0-.7.7,3.123,3.123,0,0,0-.378.975,5.268,5.268,0,0,0-.118,1.118v3.629h-1.512Z" transform="translate(-271.062 -118.211)"/><path d="M524.893,230.7a4.824,4.824,0,0,1-.4.387,3.419,3.419,0,0,1-.7.454,5.356,5.356,0,0,1-1.008.378,4.968,4.968,0,0,1-1.319.16,4.433,4.433,0,0,1-1.664-.3,3.677,3.677,0,0,1-1.294-.857,3.843,3.843,0,0,1-.832-1.328,4.782,4.782,0,0,1-.294-1.714,4.451,4.451,0,0,1,.286-1.6,3.807,3.807,0,0,1,3.613-2.479,3.623,3.623,0,0,1,1.731.387A3.452,3.452,0,0,1,524.2,225.2a4.4,4.4,0,0,1,.681,1.461,6.675,6.675,0,0,1,.218,1.714h-6.167a2.353,2.353,0,0,0,.227.958,2.417,2.417,0,0,0,.563.756,2.719,2.719,0,0,0,.807.5,2.509,2.509,0,0,0,.958.185,3.481,3.481,0,0,0,1.63-.336,3.342,3.342,0,0,0,.924-.655Zm-1.361-3.445a2.533,2.533,0,0,0-.639-1.546,2.051,2.051,0,0,0-1.613-.639,2.419,2.419,0,0,0-.966.185,2.321,2.321,0,0,0-.731.487,2.193,2.193,0,0,0-.471.7,2.3,2.3,0,0,0-.185.815Z" transform="translate(-282.057 -121.995)"/><path d="M538.938,231.983v-7.057c0-.247-.006-.5-.017-.756h1.445l.05,1.26a4,4,0,0,1,.353-.445,2.618,2.618,0,0,1,.529-.445,3.3,3.3,0,0,1,.723-.345,3.214,3.214,0,0,1,1.411-.109,2.173,2.173,0,0,1,.4.1l-.336,1.411a2.233,2.233,0,0,0-2.386.58,2.5,2.5,0,0,0-.479.765,2.443,2.443,0,0,0-.176.924v4.117Z" transform="translate(-293.8 -122.138)"/><path d="M558.75,230.746a3.94,3.94,0,0,1-1.285.949,4.107,4.107,0,0,1-1.772.361,4.491,4.491,0,0,1-1.706-.311,3.629,3.629,0,0,1-2.109-2.168,4.73,4.73,0,0,1-.286-1.672,4.3,4.3,0,0,1,.3-1.613,3.986,3.986,0,0,1,2.142-2.209,4.424,4.424,0,0,1,3.4.025,3.941,3.941,0,0,1,1.294.958l-.991.958a2.566,2.566,0,0,0-.857-.689,2.642,2.642,0,0,0-1.193-.252,2.5,2.5,0,0,0-1.084.227,2.325,2.325,0,0,0-.807.622,2.866,2.866,0,0,0-.5.907,3.249,3.249,0,0,0-.176,1.067,3.2,3.2,0,0,0,.176,1.05,2.863,2.863,0,0,0,.5.907,2.394,2.394,0,0,0,1.891.866,2.835,2.835,0,0,0,1.235-.26,2.547,2.547,0,0,0,.9-.7Z" transform="translate(-300.707 -121.977)"/><path d="M571.505,216.848H573V221.4a5.563,5.563,0,0,1,.37-.437,2.692,2.692,0,0,1,.538-.437,3.208,3.208,0,0,1,.739-.336,3.135,3.135,0,0,1,.958-.135,2.78,2.78,0,0,1,2.268.891,3.673,3.673,0,0,1,.74,2.42v4.688H577.1v-4.571a2.317,2.317,0,0,0-.471-1.6,1.712,1.712,0,0,0-1.327-.512,2.054,2.054,0,0,0-1.092.269,2.075,2.075,0,0,0-.7.7,3.122,3.122,0,0,0-.378.975,5.274,5.274,0,0,0-.118,1.118v3.629h-1.512Z" transform="translate(-311.564 -118.211)"/><path d="M599.186,230.7a4.878,4.878,0,0,1-.4.387,3.417,3.417,0,0,1-.7.454,5.351,5.351,0,0,1-1.008.378,4.968,4.968,0,0,1-1.319.16,4.434,4.434,0,0,1-1.663-.3,3.676,3.676,0,0,1-1.294-.857,3.839,3.839,0,0,1-.832-1.328,4.783,4.783,0,0,1-.294-1.714,4.453,4.453,0,0,1,.286-1.6,3.807,3.807,0,0,1,3.612-2.479,3.622,3.622,0,0,1,1.731.387,3.452,3.452,0,0,1,1.185,1.025,4.406,4.406,0,0,1,.681,1.462,6.683,6.683,0,0,1,.218,1.714h-6.166a2.355,2.355,0,0,0,.227.958,2.418,2.418,0,0,0,.563.756,2.719,2.719,0,0,0,.806.5,2.509,2.509,0,0,0,.958.185,3.481,3.481,0,0,0,1.63-.336,3.342,3.342,0,0,0,.924-.655Zm-1.361-3.445a2.533,2.533,0,0,0-.639-1.546,2.052,2.052,0,0,0-1.613-.639,2.418,2.418,0,0,0-.966.185,2.319,2.319,0,0,0-.731.487,2.191,2.191,0,0,0-.471.7,2.3,2.3,0,0,0-.185.815Z" transform="translate(-322.559 -121.995)"/></svg>